<?xml version="1.0" encoding="UTF-8" standalone="no"?>
<!-- Created with Inkscape (http://www.inkscape.org/) -->

<svg
   width="210mm"
   height="297mm"
   viewBox="0 0 210 297"
   version="1.1"
   id="svg5"
   xml:space="preserve"
   inkscape:export-filename="yamoh_logo.webp"
   inkscape:export-xdpi="96"
   inkscape:export-ydpi="96"
   inkscape:version="1.2.2 (732a01da63, 2022-12-09)"
   sodipodi:docname="yamoh_logo.svg"
   xmlns:inkscape="http://www.inkscape.org/namespaces/inkscape"
   xmlns:sodipodi="http://sodipodi.sourceforge.net/DTD/sodipodi-0.dtd"
   xmlns="http://www.w3.org/2000/svg"
   xmlns:svg="http://www.w3.org/2000/svg"><sodipodi:namedview
     id="namedview7"
     pagecolor="#ffffff"
     bordercolor="#000000"
     borderopacity="0.25"
     inkscape:showpageshadow="2"
     inkscape:pageopacity="0.0"
     inkscape:pagecheckerboard="0"
     inkscape:deskcolor="#d1d1d1"
     inkscape:document-units="mm"
     showgrid="false"
     inkscape:zoom="0.914906"
     inkscape:cx="480.92372"
     inkscape:cy="377.08792"
     inkscape:window-width="1965"
     inkscape:window-height="1227"
     inkscape:window-x="1248"
     inkscape:window-y="111"
     inkscape:window-maximized="0"
     inkscape:current-layer="layer2" /><defs
     id="defs2"><style
       id="style394">.cls-1{fill:none;stroke:#020202;stroke-miterlimit:10;stroke-width:1.91px;}</style></defs><g
     inkscape:label="Layer 1"
     inkscape:groupmode="layer"
     id="layer1"
     transform="matrix(0.85355825,0,0,0.85355825,32.539581,-32.297582)"><g
       style="fill:#000000"
       id="g215"
       transform="matrix(0.86508254,0,0,0.86508254,-18.094763,56.882863)"><g
         id="g201">
	<circle
   style="fill:#4b4b4b;fill-opacity:1;stroke:#f5a623;stroke-width:4.01002;stroke-dasharray:none;stroke-opacity:1"
   id="path3408"
   cx="122.29795"
   cy="122.51701"
   r="124.68913" /><path
   d="m 122.34,101.129 c 19.966,0 36.209,-16.243 36.209,-36.208 0,-19.966 -16.243,-36.209 -36.209,-36.209 -19.967,0 -36.211,16.243 -36.211,36.209 0,19.966 16.244,36.208 36.211,36.208 z m 0,-57.417 c 11.695,0 21.209,9.514 21.209,21.209 0,11.694 -9.514,21.208 -21.209,21.208 -11.696,0 -21.211,-9.514 -21.211,-21.208 0,-11.694 9.515,-21.209 21.211,-21.209 z"
   id="path189"
   style="fill:#1a1a1a;fill-opacity:1;stroke:#1a1a1a;stroke-opacity:1" />
	<path
   d="m 158.548,179.755 c 0,-19.965 -16.244,-36.208 -36.21,-36.208 -19.966,0 -36.21,16.243 -36.21,36.208 0,19.966 16.244,36.209 36.21,36.209 19.966,0 36.21,-16.243 36.21,-36.209 z m -36.21,21.209 c -11.695,0 -21.21,-9.514 -21.21,-21.209 0,-11.694 9.515,-21.208 21.21,-21.208 11.695,0 21.21,9.514 21.21,21.208 0,11.695 -9.515,21.209 -21.21,21.209 z"
   id="path191"
   style="fill:#1a1a1a;fill-opacity:1;stroke:#1a1a1a;stroke-opacity:1" />
	<path
   d="m 143.548,122.339 c 0,19.966 16.243,36.209 36.208,36.209 19.966,0 36.209,-16.243 36.209,-36.209 0,-19.966 -16.243,-36.21 -36.209,-36.21 -19.965,0 -36.208,16.244 -36.208,36.21 z m 36.208,-21.21 c 11.695,0 21.209,9.515 21.209,21.21 0,11.695 -9.514,21.209 -21.209,21.209 -11.694,0 -21.208,-9.514 -21.208,-21.209 0,-11.695 9.514,-21.21 21.208,-21.21 z"
   id="path193"
   style="fill:#1a1a1a;fill-opacity:1;stroke:#1a1a1a;stroke-opacity:1" />
	<path
   d="m 101.13,122.337 c 0,-19.965 -16.243,-36.208 -36.208,-36.208 -19.966,0 -36.209,16.243 -36.209,36.208 0,19.967 16.243,36.211 36.209,36.211 19.965,0 36.208,-16.244 36.208,-36.211 z m -36.208,21.211 c -11.695,0 -21.209,-9.515 -21.209,-21.211 0,-11.694 9.514,-21.208 21.209,-21.208 11.694,0 21.208,9.514 21.208,21.208 0,11.696 -9.514,21.211 -21.208,21.211 z"
   id="path195"
   style="fill:#1a1a1a;fill-opacity:1;stroke:#1a1a1a;stroke-opacity:1" />
	<circle
   cx="122.339"
   cy="122.339"
   r="9.6009998"
   id="circle197"
   style="fill:#1a1a1a;fill-opacity:1;stroke:#1a1a1a;stroke-opacity:1" />
	<path
   d="M 181.40067,229.79219 C 219.32367,208.98919 244.678,168.558 244.678,122.337 244.678,54.882 189.798,0.003 122.342,0.003 54.882,0.004 0,54.882 0,122.337 c 0,67.457 55.422916,123.67881 122.87386,122.57338 24.78291,0.0174 41.84244,-6.51739 58.52681,-15.11819 z M 15,122.337 C 15,63.153 63.153,15.003 122.342,15.003 c 59.185,0 107.336,48.15 107.336,107.334 0,59.186 -48.151,107.337 -107.336,107.337 C 63.153,229.674 15,181.523 15,122.337 Z"
   id="path199"
   style="fill:#1a1a1a;fill-opacity:1;stroke:#1a1a1a;stroke-opacity:1"
   sodipodi:nodetypes="cscsccsssss" />
</g></g></g><g
     inkscape:groupmode="layer"
     id="layer2"
     inkscape:label="Layer 2"
     transform="matrix(0.85355825,0,0,0.85355825,40.332002,-24.587561)"
     style="display:inline"><g
       id="g420"
       transform="matrix(5.0688925,0,0,5.0688925,68.437946,144.16871)"
       style="fill:none;fill-opacity:1"><circle
         style="fill:#1a1a1a;fill-opacity:1;stroke:#423131;stroke-width:0.266899;stroke-opacity:1"
         id="path3251"
         cx="148.23387"
         cy="205.78305"
         r="58.198696"
         transform="matrix(0.19728176,0,0,0.19728176,-17.244627,-28.575536)" /><line
         class="cls-1"
         x1="12"
         y1="4.3600001"
         x2="12"
         y2="1.5"
         id="line398"
         style="fill:none;fill-opacity:1;stroke:#f5a623;stroke-opacity:1" /><line
         class="cls-1"
         x1="12"
         y1="22.5"
         x2="12"
         y2="19.639999"
         id="line400"
         style="fill:none;fill-opacity:1;stroke:#f5a623;stroke-opacity:1" /><line
         class="cls-1"
         x1="19.685385"
         y1="12.040342"
         x2="22.545385"
         y2="12.040342"
         id="line402"
         style="fill:none;fill-opacity:1;stroke:#f5a623;stroke-opacity:1" /><line
         class="cls-1"
         x1="1.5"
         y1="12"
         x2="4.3600001"
         y2="12"
         id="line404"
         style="fill:none;fill-opacity:1;stroke:#f5a623;stroke-opacity:1" /><path
         class="cls-1"
         d="M 22.5,13 V 12 A 10.51,10.51 0 1 0 20,18.83"
         id="path406"
         style="fill:none;fill-opacity:1;stroke:#f5a623;stroke-opacity:1" /></g><text
       xml:space="preserve"
       style="font-size:88.3967px;font-family:Literata;-inkscape-font-specification:Literata;fill:#f8f8f2;fill-opacity:1;stroke:#70706f;stroke-width:0.220992;stroke-opacity:0.995763"
       x="102.67617"
       y="234.6017"
       id="text2421"><tspan
         sodipodi:role="line"
         id="tspan2419"
         style="font-style:normal;font-variant:normal;font-weight:bold;font-stretch:normal;font-family:'Segoe UI';-inkscape-font-specification:'Segoe UI';fill:#f8f8f2;fill-opacity:1;stroke:#70706f;stroke-width:0.220992;stroke-opacity:0.995763"
         x="102.67617"
         y="234.6017">Y</tspan></text></g></svg>
